<svg width="111.63984929460251" height="111.854" xmlns="http://www.w3.org/2000/svg">
 <g>
  <title>background</title>
  <rect x="-1" y="-1" width="113.639849" height="113.854" id="canvas_background" fill="none"/>
 </g>

 <g>
  <title>Layer 1</title>
  <g id="SvgjsG1403" fill="#00968B" transform="translate(-9.118775367736816,-14.068967819213867) scale(1.3026820421218872) ">
   <path d="m85.2,18.2c-4.8,-4.8 -11.2,-7.4 -18.2,-7.4c-6.2,0 -12.3,2.2 -17,6.3c-4.8,-4.1 -10.7,-6.3 -17,-6.3c-7,0 -13.5,2.7 -18.4,7.5c-4.9,4.9 -7.6,11.4 -7.6,18.3c0,6.9 2.7,13.4 7.6,18.3l33.5,33.5c0.5,0.5 1.1,0.7 1.8,0.7c0.6,0 1.3,-0.3 1.8,-0.7l33.5,-33.4c4.9,-4.9 7.5,-11.4 7.5,-18.4c0,-7 -2.7,-13.5 -7.5,-18.4zm-52.2,-2.4c5.6,0 10.9,2.2 14.7,6.2l0.4,0.4c1,1 2.5,1 3.5,0l0.4,-0.4c4,-4 9.2,-6.2 14.7,-6.2c5.6,0 10.9,2.2 14.7,6.2c4,4 6.2,9.2 6.2,14.8c0.2,1.4 0,2.8 -0.2,3.8l-8.9,0c-0.8,0 -1.4,0.3 -1.9,0.9l-6.6,7.5l-6.2,-17.7c-0.4,-1 -1.3,-1.6 -2.3,-1.6c-1.1,0 -2,0.6 -2.4,1.5l-6.6,14.2l-5,0c-0.8,0 -1.6,0.4 -2.1,1.2l-5.9,9.3l-9.4,-21.8c-0.4,-0.9 -1.3,-1.5 -2.3,-1.5c-1.1,0 -1.9,0.6 -2.3,1.5l-5.5,11.7l-6,0c-3.9,-8 -2.3,-17.6 4,-23.8c4.3,-4 9.6,-6.2 15,-6.2z" id="svg_2"/>
  </g>
 </g>
</svg>
